<svg width="200" height="200" xmlns="http://www.w3.org/2000/svg">
  <defs>
    <linearGradient id="bg" x1="0%" y1="0%" x2="100%" y2="100%">
      <stop offset="0%" style="stop-color:#e91e63;stop-opacity:1" />
      <stop offset="100%" style="stop-color:#f8bbd9;stop-opacity:1" />
    </linearGradient>
  </defs>
  
  <!-- Background -->
  <rect width="200" height="200" rx="20" fill="url(#bg)"/>
  
  <!-- Flower pot -->
  <polygon points="70,150 130,150 125,170 75,170" fill="#8d6e63"/>
  <rect x="75" y="170" width="50" height="10" fill="#6d4c41"/>
  
  <!-- Stems -->
  <rect x="85" y="120" width="4" height="30" fill="#4caf50"/>
  <rect x="100" y="115" width="4" height="35" fill="#4caf50"/>
  <rect x="115" y="125" width="4" height="25" fill="#4caf50"/>
  
  <!-- Rose -->
  <circle cx="87" cy="120" r="12" fill="#f44336"/>
  <circle cx="87" cy="118" r="8" fill="#ff6b6b"/>
  <circle cx="87" cy="116" r="4" fill="#ffcdd2"/>
  
  <!-- Sunflower -->
  <circle cx="102" cy="115" r="15" fill="#ffeb3b"/>
  <circle cx="102" cy="115" r="8" fill="#8d6e63"/>
  <!-- Petals -->
  <ellipse cx="87" cy="115" rx="6" ry="12" fill="#ffeb3b"/>
  <ellipse cx="117" cy="115" rx="6" ry="12" fill="#ffeb3b"/>
  <ellipse cx="102" cy="100" rx="12" ry="6" fill="#ffeb3b"/>
  <ellipse cx="102" cy="130" rx="12" ry="6" fill="#ffeb3b"/>
  
  <!-- Tulip -->
  <ellipse cx="117" cy="125" rx="8" ry="12" fill="#9c27b0"/>
  <ellipse cx="117" cy="123" rx="6" ry="10" fill="#ba68c8"/>
  
  <!-- Leaves -->
  <ellipse cx="78" cy="135" rx="8" ry="4" fill="#4caf50" transform="rotate(-30 78 135)"/>
  <ellipse cx="110" cy="140" rx="8" ry="4" fill="#4caf50" transform="rotate(20 110 140)"/>
  <ellipse cx="125" cy="138" rx="8" ry="4" fill="#4caf50" transform="rotate(-40 125 138)"/>
  
  <!-- Decorative elements -->
  <circle cx="60" cy="80" r="3" fill="#ffeb3b"/>
  <circle cx="140" cy="90" r="3" fill="#f44336"/>
  <circle cx="50" cy="110" r="2" fill="#9c27b0"/>
  <circle cx="150" cy="120" r="2" fill="#ff5722"/>
</svg>
