<svg width="200" height="200" xmlns="http://www.w3.org/2000/svg">
  <defs>
    <radialGradient id="bg" cx="50%" cy="30%" r="70%">
      <stop offset="0%" style="stop-color:#4caf50;stop-opacity:1" />
      <stop offset="100%" style="stop-color:#2e7d32;stop-opacity:1" />
    </linearGradient>
    <linearGradient id="bag" x1="0%" y1="0%" x2="100%" y2="100%">
      <stop offset="0%" style="stop-color:#8d6e63;stop-opacity:1" />
      <stop offset="100%" style="stop-color:#5d4037;stop-opacity:1" />
    </linearGradient>
  </defs>
  
  <!-- Background -->
  <rect width="200" height="200" rx="25" fill="url(#bg)"/>
  
  <!-- Decorative border -->
  <rect x="10" y="10" width="180" height="180" rx="20" fill="none" stroke="#fff" stroke-width="2" opacity="0.3"/>
  
  <!-- Shopping bag -->
  <rect x="55" y="85" width="90" height="95" rx="8" fill="url(#bag)"/>
  <rect x="60" y="90" width="80" height="85" fill="#a1887f"/>
  
  <!-- Bag handles -->
  <path d="M 85 85 Q 85 70 100 70 Q 115 70 115 85" stroke="#6d4c41" stroke-width="6" fill="none"/>
  
  <!-- Beautiful apple -->
  <circle cx="85" cy="115" r="14" fill="#e53935"/>
  <circle cx="85" cy="115" r="12" fill="#f44336"/>
  <ellipse cx="82" cy="112" rx="4" ry="8" fill="#ffcdd2"/>
  <rect x="84" y="101" width="2" height="8" fill="#4caf50"/>
  <ellipse cx="86" cy="103" rx="3" ry="2" fill="#388e3c"/>
  
  <!-- Fresh bread -->
  <ellipse cx="115" cy="120" rx="18" ry="12" fill="#8d6e63"/>
  <ellipse cx="115" cy="118" rx="15" ry="10" fill="#d7ccc8"/>
  <ellipse cx="110" cy="115" rx="3" ry="2" fill="#6d4c41"/>
  <ellipse cx="118" cy="117" rx="2" ry="1" fill="#6d4c41"/>
  
  <!-- Milk carton -->
  <rect x="75" y="140" width="18" height="28" fill="#fff"/>
  <rect x="75" y="140" width="18" height="10" fill="#2196f3"/>
  <polygon points="75,140 84,135 93,140" fill="#e3f2fd"/>
  <rect x="78" y="145" width="12" height="2" fill="#1976d2"/>
  <circle cx="84" cy="155" r="2" fill="#f44336"/>
  
  <!-- Banana -->
  <path d="M 105 145 Q 110 150 115 155 Q 120 160 125 155" stroke="#ffeb3b" stroke-width="10" fill="none"/>
  <circle cx="105" cy="145" r="3" fill="#4caf50"/>
  <ellipse cx="115" cy="155" rx="2" ry="1" fill="#f57f17"/>
  
  <!-- Carrot -->
  <polygon points="125,135 130,135 132,155 123,155" fill="#ff5722"/>
  <rect x="126" y="130" width="2" height="8" fill="#4caf50"/>
  <rect x="128" y="128" width="2" height="10" fill="#4caf50"/>
  
  <!-- Fresh leaves decoration -->
  <ellipse cx="45" cy="70" rx="8" ry="12" fill="#66bb6a" transform="rotate(-20 45 70)"/>
  <ellipse cx="155" cy="75" rx="8" ry="12" fill="#81c784" transform="rotate(25 155 75)"/>
  
  <!-- Shopping list paper -->
  <rect x="30" y="120" width="15" height="20" fill="#fff" rx="2"/>
  <rect x="32" y="125" width="11" height="1" fill="#666"/>
  <rect x="32" y="128" width="8" height="1" fill="#666"/>
  <rect x="32" y="131" width="10" height="1" fill="#666"/>
  <rect x="32" y="134" width="6" height="1" fill="#666"/>
  
  <!-- Quality badge -->
  <circle cx="160" cy="50" r="15" fill="#ffeb3b"/>
  <circle cx="160" cy="50" r="12" fill="#ffc107"/>
  <text x="160" y="54" text-anchor="middle" fill="#f57c00" font-family="Arial" font-size="10" font-weight="bold">★</text>
</svg>
